<?xml version="1.0" encoding="UTF-8"?>
<svg width="512px" height="512px" viewBox="0 0 512 512" version="1.1" xmlns="http://www.w3.org/2000/svg" xmlns:xlink="http://www.w3.org/1999/xlink">
    <title>Icon</title>
    <g id="Icon" stroke="none" stroke-width="1" fill="none" fill-rule="evenodd">
        <rect fill="#D6B9FF" x="0" y="0" width="512" height="512"></rect>
        <g id="Group-3" transform="translate(22.000000, 136.000000)" fill="#00821F">
            <path d="M112.5,0 C174.355892,0 224.5,53.9496876 224.5,120.5 C224.5,187.050312 174.355892,241 112.5,241 C50.644108,241 0.5,187.050312 0.5,120.5 C0.5,53.9496876 50.644108,0 112.5,0 Z M112.5,44.8012821 C77.0928342,44.8012821 48.3896552,78.6927525 48.3896552,120.5 C48.3896552,162.307248 77.0928342,196.198718 112.5,196.198718 C147.907166,196.198718 176.610345,162.307248 176.610345,120.5 C176.610345,78.6927525 147.907166,44.8012821 112.5,44.8012821 Z" id="Combined-Shape-Copy"></path>
            <path d="M355.5,0 C417.355892,0 467.5,53.9496876 467.5,120.5 C467.5,187.050312 417.355892,241 355.5,241 C293.644108,241 243.5,187.050312 243.5,120.5 C243.5,53.9496876 293.644108,0 355.5,0 Z M355.5,44.8012821 C320.092834,44.8012821 291.389655,78.6927525 291.389655,120.5 C291.389655,162.307248 320.092834,196.198718 355.5,196.198718 C390.907166,196.198718 419.610345,162.307248 419.610345,120.5 C419.610345,78.6927525 390.907166,44.8012821 355.5,44.8012821 Z" id="Combined-Shape-Copy-2"></path>
            <circle id="Oval-Copy" cx="113.5" cy="121" r="23"></circle>
            <circle id="Oval-Copy-2" cx="355.5" cy="121" r="23"></circle>
        </g>
    </g>
</svg>