<svg height="512" viewBox="0 0 512 512" width="512" xmlns="http://www.w3.org/2000/svg"><g fill="none" fill-rule="evenodd"><path d="m0 0h512v512h-512z" fill="#cf0"/><g fill="#00821f" transform="translate(22 136)"><path d="m112.5 0c61.855892 0 112 53.9496876 112 120.5 0 66.550312-50.144108 120.5-112 120.5s-112-53.949688-112-120.5c0-66.5503124 50.144108-120.5 112-120.5zm0 44.8012821c-35.4071658 0-64.1103448 33.8914704-64.1103448 75.6987179 0 41.807248 28.703179 75.698718 64.1103448 75.698718 35.407166 0 64.110345-33.89147 64.110345-75.698718 0-41.8072475-28.703179-75.6987179-64.110345-75.6987179z"/><path d="m355.5 0c61.855892 0 112 53.9496876 112 120.5 0 66.550312-50.144108 120.5-112 120.5s-112-53.949688-112-120.5c0-66.5503124 50.144108-120.5 112-120.5zm0 44.8012821c-35.407166 0-64.110345 33.8914704-64.110345 75.6987179 0 41.807248 28.703179 75.698718 64.110345 75.698718s64.110345-33.89147 64.110345-75.698718c0-41.8072475-28.703179-75.6987179-64.110345-75.6987179z"/><circle cx="113.5" cy="121" r="23"/><circle cx="355.5" cy="121" r="23"/></g></g></svg>